<?xml version="1.0" encoding="utf-8"?>
<!-- Generator: Adobe Illustrator 22.0.1, SVG Export Plug-In . SVG Version: 6.00 Build 0)  -->
<svg version="1.1" id="Layer_1" xmlns="http://www.w3.org/2000/svg" xmlns:xlink="http://www.w3.org/1999/xlink" x="0px" y="0px"
	 viewBox="0 0 74.9 127.5" style="enable-background:new 0 0 74.9 127.5;" xml:space="preserve">
<style type="text/css">
	.st0{fill:#3D58A6;}
</style>
<path class="st0" d="M60.7,72.9c1.2,0,2.2-1,2.2-2.2V26.7c0-3.7-3.5-6.9-7.6-6.9H19.6c-4.2,0-7.6,3.4-7.6,7.5v73.5
	c0,4.2,3.4,7.5,7.6,7.5h31.2c1.2,0,2.2-1,2.2-2.2s-1-2.2-2.2-2.2H19.6c-1.8,0-3.2-1.4-3.2-3.2V27.4c0-1.8,1.4-3.2,3.2-3.2h35.7
	c1.9,0,3.2,1.5,3.2,2.5v44.1C58.6,72,59.5,72.9,60.7,72.9z"/>
<path class="st0" d="M70.2,115.7c-1.1,0-2,0.9-2,2c0,3.3-2.7,5.9-5.9,5.9H9.9c-3.3,0-5.9-2.6-5.9-5.9V9.8c0-3.3,2.7-5.9,5.9-5.9
	h52.5c3.3,0,5.9,2.6,5.9,5.9v60.3c0,1.1,0.9,2,2,2c1.1,0,2-0.9,2-2V36.5c1.5-0.3,2.6-1.6,2.6-3.2v-8.6c0-1.6-1.1-2.9-2.6-3.2V9.8
	c0-5.4-4.4-9.8-9.9-9.8H9.9C4.4,0,0,4.4,0,9.8v107.8c0,5.4,4.4,9.8,9.9,9.8h52.5c5,0,9.2-3.7,9.8-8.6c0.1-0.2,0.1-0.4,0.1-0.6v-0.7
	C72.2,116.6,71.3,115.7,70.2,115.7z"/>
<path class="st0" d="M36.7,116.8c0,0.8-0.7,1.5-1.5,1.5s-1.5-0.7-1.5-1.5s0.7-1.5,1.5-1.5S36.7,115.9,36.7,116.8z"/>
<path class="st0" d="M45,13c1.1,0,2-0.9,2-2s-0.9-2-2-2H25.2c-1.1,0-2,0.9-2,2s0.9,2,2,2H45z"/>
<path class="st0" d="M33.6,116.8c0,3,2.5,5.5,5.5,5.5c3,0,5.5-2.5,5.5-5.5c0-3-2.5-5.5-5.5-5.5C36.1,111.3,33.6,113.8,33.6,116.8z"
	/>
</svg>
